<?xml version="1.0" encoding="UTF-8" standalone="no"?>
<!-- Created with Inkscape (http://www.inkscape.org/) -->

<svg
   xmlns:dc="http://purl.org/dc/elements/1.1/"
   xmlns:cc="http://creativecommons.org/ns#"
   xmlns:rdf="http://www.w3.org/1999/02/22-rdf-syntax-ns#"
   xmlns:svg="http://www.w3.org/2000/svg"
   xmlns="http://www.w3.org/2000/svg"
   xmlns:sodipodi="http://sodipodi.sourceforge.net/DTD/sodipodi-0.dtd"
   xmlns:inkscape="http://www.inkscape.org/namespaces/inkscape"
   width="3000"
   height="3000"
   viewBox="0 0 793.74999 793.74999"
   version="1.1"
   id="svg8"
   inkscape:version="0.92.4 (5da689c313, 2019-01-14)"
   sodipodi:docname="Stock_wheat_logo.svg"
   inkscape:export-filename="C:\Users\Z83 II\Documents\habibati\ZANATA_HITAM.png"
   inkscape:export-xdpi="300"
   inkscape:export-ydpi="300">
  <defs
     id="defs2" />
  <sodipodi:namedview
     id="base"
     pagecolor="#ffffff"
     bordercolor="#666666"
     borderopacity="1.0"
     inkscape:pageopacity="0.0"
     inkscape:pageshadow="2"
     inkscape:zoom="0.12374369"
     inkscape:cx="1775.9047"
     inkscape:cy="1481.9629"
     inkscape:document-units="mm"
     inkscape:current-layer="layer1"
     showgrid="false"
     inkscape:window-width="1366"
     inkscape:window-height="705"
     inkscape:window-x="-8"
     inkscape:window-y="-8"
     inkscape:window-maximized="1"
     units="px" />
  <metadata
     id="metadata5">
    <rdf:RDF>
      <cc:Work
         rdf:about="">
        <dc:format>image/svg+xml</dc:format>
        <dc:type
           rdf:resource="http://purl.org/dc/dcmitype/StillImage" />
        <dc:title></dc:title>
      </cc:Work>
    </rdf:RDF>
  </metadata>
  <g
     inkscape:label="Layer 1"
     inkscape:groupmode="layer"
     id="layer1"
     transform="translate(0,496.74998)">
    <path
       sodipodi:nodetypes="cccsccsccsccsscssccccsssccsccccccssssccsccccccsscscscsccscsssccsscsscssssccccsscccssccccccscsccccscccccscsscccccsc"
       inkscape:connector-curvature="0"
       id="path982"
       d="m 428.77635,14.268381 c 1.1317,-0.42741 4.33068,-0.77372 7.10875,-0.76943 9.29577,0.0156 11.25354,-1.10016 11.28155,-6.4217767 0.0401,-7.64350593 6.93719,-27.3273693 12.56153,-35.8501963 14.19861,-21.515881 51.80945,-47.629609 72.53047,-50.358917 7.11319,-0.936958 7.83624,0.33837 3.56006,6.277272 -1.46863,2.039739 -6.86766,11.401906 -11.99779,20.804837 -15.02322,27.535492 -29.77178,46.8327827 -41.02218,53.6739476 -3.68914,2.2434 -6.70919,4.3848367 -6.7111,4.7587167 -0.008,1.71507 43.46459,-10.9036589 44.7728,-12.9958506 0.34272,-0.548719 -0.0631,-3.279263 -0.90326,-6.0680017 -2.04475,-6.78903 0.73467,-24.367907 5.65267,-35.753227 6.7119,-15.538369 22.74278,-34.795197 36.37019,-43.689011 7.2232,-4.714227 20.62207,-10.853394 21.91841,-10.042764 0.62508,0.39101 1.50789,5.534547 1.96162,11.430294 0.65298,8.483007 0.27548,12.440563 -1.80858,18.967887 -4.90345,15.356042 -11.24993,28.428487 -19.22916,39.607619 -4.4269,6.202063 -4.52803,6.572283 -1.54928,5.670944 3.96333,-1.199302 37.81338,-23.158537 39.36232,-25.535133 0.62316,-0.956245 1.8476,-6.455432 2.72097,-12.22039 1.1537,-7.616834 3.5208,-14.474484 8.65998,-25.089381 9.13618,-18.87025 14.3774,-26.00102 24.47959,-33.30471 16.10169,-11.64111 20.8931,-6.1984 14.55661,16.53576 -2.48743,8.924697 -2.49293,9.251297 -0.12001,7.126397 4.12221,-3.691317 15.1586,-18.070987 14.43262,-18.804647 -2.04864,-2.07025 -3.11714,-17.60242 -1.73103,-25.16308 2.9136,-15.89282 13.16227,-33.88568 20.29861,-35.63697 6.24632,-1.5329 8.40506,0.23706 9.72228,7.97264 l 1.22149,7.17314 3.10397,-6.61012 c 2.99443,-6.37689 3.01948,-6.74064 0.709,-10.3078 -3.59632,-5.552 -4.15007,-22.99957 -1.08238,-34.10104 1.34565,-4.8699 2.95259,-8.85162 3.57096,-8.84836 1.97262,0.0105 6.18852,6.40527 8.09089,12.27289 1.01293,3.12427 2.28052,5.68284 2.81684,5.68563 0.53632,0.003 2.01125,-3.61431 3.27763,-8.03824 l 2.30249,-8.04334 -4.69187,-5.02747 c -5.74876,-6.15998 -7.08278,-11.69899 -4.76876,-19.79989 2.47162,-8.65246 6.81741,-10.52924 12.23512,-5.28392 l 3.94793,3.8223 0.99628,-4.42396 c 0.56847,-2.52393 0.41763,-4.79684 -0.35024,-5.29194 -3.91516,-2.52356 -7.13838,-10.89746 -7.10355,-18.4551 0.0408,-8.48186 0.87637,-9.23634 6.26962,-5.66103 3.23419,2.14345 3.383,2.1117 3.39791,-0.7255 0.0191,-3.6796 5.15233,-13.84667 6.9858,-13.83705 0.74194,0.003 2.63949,1.31127 4.21685,2.9053 2.25382,2.27763 2.6742,3.90123 1.96332,7.58385 -0.84353,4.36744 0.7148,6.45411 2.58538,3.46269 0.42527,-0.68058 2.66118,-1.88421 4.968,-2.67479 3.5399,-1.21321 4.61346,-1.01388 6.88087,1.27764 1.47767,1.49334 2.68379,3.28726 2.68003,3.98643 -0.0121,2.4165 -7.2878,9.82139 -12.28125,12.50051 l -5.01125,2.68863 6.54514,-0.82404 c 4.36516,-0.54958 6.59983,-0.31322 6.70919,0.71033 0.0901,0.84385 0.27855,2.30944 0.41843,3.25687 0.98042,6.64274 -11.5088,17.49657 -20.08102,17.45153 -1.73492,-0.009 -2.96731,1.57039 -3.95225,5.06559 -1.87411,6.6512 -0.9771,7.24328 3.92515,2.59438 4.97563,-4.71716 15.03333,-6.36627 17.85655,-2.92799 1.50539,1.83349 1.28913,3.21823 -1.33899,8.57606 -3.58075,7.29869 -11.87801,13.85008 -21.56213,17.02479 -6.18769,2.02845 -6.49938,2.39753 -9.55331,11.31028 -1.73643,5.06727 -2.60099,9.2162 -1.92118,9.21986 0.67962,0.003 1.23859,-0.5543 1.2422,-1.23968 0.008,-1.58721 10.62702,-7.67926 15.2844,-8.76888 4.58815,-1.0733 9.53545,2.39742 9.51297,6.67385 -0.022,4.16339 -7.41509,13.77072 -15.00211,19.49472 -5.3805,4.05941 -10.04121,5.91005 -19.57073,7.77129 -2.74732,0.53657 -4.77909,3.314 -9.97334,13.63425 l -6.5232,12.96035 7.15754,-1.86538 c 9.22598,-2.40455 20.37425,-2.35377 23.7039,0.10969 2.56846,1.89891 2.56636,2.02233 -0.118,7.04038 -3.22549,6.02938 -16.84859,18.65747 -24.21902,22.45009 -7.27949,3.74582 -18.8078,6.92049 -25.01212,6.88787 -4.58206,-0.024 -5.78521,0.70405 -9.46496,5.72804 -4.63607,6.329657 -18.07424,21.758579 -23.51416,26.997665 -2.92284,2.814974 -3.03164,3.171917 -0.70055,2.299029 15.55826,-5.825992 20.13229,-6.534957 30.79149,-4.772677 5.79436,0.957802 11.30643,2.37715 12.24889,3.15532 6.4171,5.292722 -6.9113,21.409216 -24.59682,29.741944 l -10.35478,4.878813 -23.40886,-0.100795 -23.40875,-0.100737 -6.6731,5.106951 -6.67301,5.106934 6.1139,0.03208 c 8.09698,0.04254 19.0153,2.238027 24.6341,4.953298 12.83713,6.203614 14.8379,7.68007 14.82082,10.937014 -0.046,8.7637037 -21.08764,20.5126853 -39.41669,22.0090953 -13.6028,1.11058 -37.45732,-1.42536 -49.7299,-5.2866567 L 537.737,0.06636737 529.97661,3.4335276 c -4.26824,1.8518667 -11.6317,4.8058367 -16.36335,6.5642767 -4.73158,1.7584967 -8.61402,3.6037867 -8.62778,4.1006767 -0.0126,0.49695 3.1908,1.362927 7.12127,1.924557 15.75356,2.25098 30.46807,9.796157 29.65997,15.208741 -0.2682,1.80141 -3.80757,4.70939 -10.04249,8.252937 -9.59329,5.452307 -9.68656,5.472937 -26.49909,5.867687 -21.89681,0.51414 -28.92201,-1.56497 -40.46768,-11.976424 -5.13858,-4.633827 -9.15185,-7.226507 -10.57795,-6.833537 -1.26391,0.34823 -5.70809,1.01465 -9.87607,1.48101 -4.1679,0.46634 -8.66353,1.14884 -9.99024,1.51661 -2.41138,0.66841 -3.82702,-1.68066 -6.50771,-10.798664 -0.80734,-2.74607 -0.55821,-3.892257 0.97337,-4.469827 z m 310.4709,-276.001611 c 1.58397,-0.83702 2.54559,-1.85984 2.13684,-2.27288 -1.12901,-1.14097 -5.00037,0.65679 -5.00916,2.32613 -0.006,1.01832 0.87528,1.00207 2.87227,-0.0533 z"
       style="fill:#806600;fill-opacity:1;stroke-width:1.37700284" />
    <path
       style="fill:#806600;fill-opacity:1;stroke-width:1.37700284"
       d="m 382.2725,14.268381 c -1.13169,-0.42741 -4.33068,-0.77372 -7.10874,-0.76943 -9.29577,0.0156 -11.25353,-1.10016 -11.28154,-6.4217767 -0.0401,-7.64350593 -6.93719,-27.3273693 -12.56153,-35.8501963 -14.1986,-21.515881 -51.80944,-47.629609 -72.53046,-50.358917 -7.11319,-0.936958 -7.83624,0.33837 -3.56007,6.277272 1.46864,2.039739 6.86767,11.401906 11.9978,20.804837 15.02322,27.535492 29.77178,46.8327827 41.02218,53.6739476 3.68914,2.2434 6.70919,4.3848367 6.7111,4.7587167 0.008,1.71507 -43.46459,-10.9036589 -44.7728,-12.9958506 -0.34273,-0.548719 0.063,-3.279263 0.90326,-6.0680017 2.04475,-6.78903 -0.73467,-24.367907 -5.65267,-35.753227 -6.7119,-15.538369 -22.74278,-34.795197 -36.37019,-43.689011 -7.2232,-4.714227 -20.62207,-10.853394 -21.91841,-10.042764 -0.62508,0.39101 -1.50789,5.534547 -1.96162,11.430294 -0.65298,8.483007 -0.27548,12.440563 1.80858,18.967887 4.90345,15.356042 11.24993,28.428487 19.22916,39.607619 4.4269,6.202063 4.52803,6.572283 1.54928,5.670944 -3.96333,-1.199302 -37.81338,-23.158537 -39.36232,-25.535133 -0.62316,-0.956245 -1.8476,-6.455432 -2.72097,-12.22039 -1.1537,-7.616834 -3.5208,-14.474484 -8.65998,-25.089381 -9.13618,-18.87025 -14.3774,-26.00102 -24.47959,-33.30471 -16.10169,-11.64111 -20.8931,-6.1984 -14.55661,16.53576 2.48743,8.924697 2.49293,9.251297 0.12001,7.126397 -4.12221,-3.691317 -15.1586,-18.070987 -14.43262,-18.804647 2.04864,-2.07025 3.11714,-17.60242 1.73103,-25.16308 -2.9136,-15.89282 -13.16227,-33.88568 -20.29861,-35.63697 -6.24632,-1.5329 -8.40506,0.23706 -9.72229,7.97264 l -1.22148,7.17314 -3.10397,-6.61012 c -2.99443,-6.37689 -3.01949,-6.74064 -0.709,-10.3078 3.59632,-5.552 4.15007,-22.99957 1.08238,-34.10104 -1.34565,-4.8699 -2.95259,-8.85162 -3.57096,-8.84836 -1.97262,0.0105 -6.18852,6.40527 -8.090887,12.27289 -1.01293,3.12427 -2.28052,5.68284 -2.81684,5.68563 -0.53632,0.003 -2.01125,-3.61431 -3.277627,-8.03824 l -2.3025,-8.04334 4.691877,-5.02747 c 5.748757,-6.15998 7.082777,-11.69899 4.768757,-19.79989 -2.471617,-8.65246 -6.817404,-10.52924 -12.235101,-5.28392 l -3.94794,3.8223 -0.996277,-4.42396 c -0.56847,-2.52393 -0.41763,-4.79684 0.35024,-5.29194 3.915157,-2.52356 7.138364,-10.89746 7.103544,-18.4551 -0.0407,-8.48186 -0.87638,-9.23634 -6.269617,-5.66103 -3.234187,2.14345 -3.383007,2.1117 -3.397907,-0.7255 -0.0191,-3.6796 -5.152327,-13.84667 -6.985797,-13.83705 -0.74194,0.003 -2.639497,1.31127 -4.216847,2.9053 -2.253817,2.27763 -2.674197,3.90123 -1.96332,7.58385 0.84353,4.36744 -0.714797,6.45411 -2.585377,3.46269 -0.42527,-0.68058 -2.66118,-1.88421 -4.967997,-2.67479 -3.539897,-1.21321 -4.613457,-1.01388 -6.880867,1.27764 -1.477667,1.49334 -2.683787,3.28726 -2.680027,3.98643 0.0121,2.4165 7.287794,9.82139 12.281241,12.50051 l 5.011247,2.68863 -6.545144,-0.82404 c -4.365147,-0.54958 -6.599817,-0.31322 -6.709187,0.71033 -0.0901,0.84385 -0.27854,2.30944 -0.41842,3.25687 -0.98042,6.64274 11.508784,17.49657 20.081008,17.45153 1.73492,-0.009 2.96731,1.57039 3.95224,5.06559 1.874117,6.6512 0.977107,7.24328 -3.92514,2.59438 -4.975637,-4.71716 -15.033321,-6.36627 -17.856538,-2.92799 -1.50539,1.83349 -1.28914,3.21823 1.338977,8.57606 3.58076,7.29869 11.878024,13.85008 21.562128,17.02479 6.187687,2.02845 6.499377,2.39753 9.553304,11.31028 1.73643,5.06727 2.60099,9.2162 1.92118,9.21986 -0.67962,0.003 -1.23859,-0.5543 -1.2422,-1.23968 -0.008,-1.58721 -10.627014,-7.67926 -15.284391,-8.76888 -4.588147,-1.0733 -9.535454,2.39742 -9.512964,6.67385 0.022,4.16339 7.415077,13.77072 15.002091,19.49472 5.380507,4.05941 10.041214,5.91005 19.570731,7.77129 2.747317,0.53657 4.779087,3.314 9.973337,13.63425 l 6.5232,12.96035 -7.15754,-1.86538 c -9.22598,-2.40455 -20.374241,-2.35377 -23.703891,0.10969 -2.568457,1.89891 -2.566357,2.02233 0.11799,7.04038 3.2255,6.02938 16.848591,18.65747 24.219021,22.45009 7.27949,3.74582 18.8078,6.92049 25.01212,6.88787 4.58206,-0.024 5.78521,0.70405 9.46496,5.72804 4.63607,6.329657 18.07424,21.758579 23.51416,26.997665 2.92284,2.814974 3.03164,3.171917 0.70055,2.299029 -15.55826,-5.825992 -20.13229,-6.534957 -30.79149,-4.772677 -5.79436,0.957802 -11.30643,2.37715 -12.24889,3.15532 -6.4171,5.292722 6.9113,21.409216 24.59682,29.741944 l 10.35478,4.878813 23.40886,-0.100795 23.40875,-0.100737 6.6731,5.106951 6.67301,5.106934 -6.1139,0.03208 c -8.09698,0.04254 -19.01531,2.238027 -24.6341,4.953298 -12.83713,6.203614 -14.8379,7.68007 -14.82082,10.937014 0.046,8.7637037 21.08764,20.5126853 39.41669,22.0090953 13.6028,1.11058 37.45732,-1.42536 49.7299,-5.2866567 l 9.04476,-2.84583023 7.76039,3.36716023 c 4.26824,1.8518667 11.6317,4.8058367 16.36335,6.5642767 4.73158,1.7584967 8.61402,3.6037867 8.62778,4.1006767 0.0126,0.49695 -3.1908,1.362927 -7.12128,1.924557 -15.75355,2.25098 -30.46806,9.796157 -29.65996,15.208741 0.2682,1.80141 3.80757,4.70939 10.04249,8.252937 9.59329,5.452307 9.68656,5.472937 26.49909,5.867687 21.89681,0.51414 28.92201,-1.56497 40.46767,-11.976424 5.13858,-4.633827 9.15185,-7.226507 10.57795,-6.833537 1.26391,0.34823 5.70808,1.01465 9.87607,1.48101 4.16789,0.46634 8.66351,1.14884 9.99023,1.51661 2.41138,0.66841 3.82701,-1.68066 6.50771,-10.798664 0.80733,-2.74607 0.5582,-3.892257 -0.97338,-4.469827 z M 71.801648,-261.73323 c -1.58398,-0.83702 -2.54559,-1.85984 -2.13684,-2.27288 1.12901,-1.14097 5.000367,0.65679 5.009147,2.32613 0.006,1.01832 -0.87528,1.00207 -2.872257,-0.0533 z"
       id="path917"
       inkscape:connector-curvature="0"
       sodipodi:nodetypes="cccsccsccsccsscssccccsssccsccccccssssccsccccccsscscscsccscsssccsscsscssssccccsscccssccccccscsccccscccccscsscccccsc" />
    <path
       style="opacity:1;fill:#ffcc00;fill-opacity:1;stroke:none;stroke-width:1.24342012;stroke-miterlimit:4;stroke-dasharray:none;stroke-opacity:1"
       d="M 92.364746,42.526098 H 266.22733 V 176.78603 H 99.241473 l 25.791587,-67.12996 z"
       id="rect2064"
       inkscape:connector-curvature="0"
       sodipodi:nodetypes="cccccc"
       inkscape:export-xdpi="300"
       inkscape:export-ydpi="300" />
    <path
       style="opacity:1;fill:#aa8800;fill-opacity:1;stroke:none;stroke-width:1.16399777;stroke-miterlimit:4;stroke-dasharray:none;stroke-opacity:1"
       d="M 151.39003,8.1424513 267.1524,42.526087 V 176.78603 L 151.39003,142.40239 Z"
       id="rect2061"
       inkscape:connector-curvature="0"
       sodipodi:nodetypes="ccccc"
       inkscape:export-xdpi="300"
       inkscape:export-ydpi="300" />
    <path
       sodipodi:nodetypes="cccccc"
       inkscape:connector-curvature="0"
       id="path2067"
       d="M 715.17627,42.526098 H 541.31369 V 176.78603 h 167.55894 l -26.36465,-67.12996 z"
       style="opacity:1;fill:#ffcc00;fill-opacity:1;stroke:none;stroke-width:1.24342012;stroke-miterlimit:4;stroke-dasharray:none;stroke-opacity:1"
       inkscape:export-xdpi="300"
       inkscape:export-ydpi="300" />
    <path
       sodipodi:nodetypes="ccccc"
       inkscape:connector-curvature="0"
       id="path2069"
       d="M 540.38863,176.78603 656.15104,142.4024 V 8.1424513 L 540.38863,42.526098 Z"
       style="opacity:1;fill:#aa8800;fill-opacity:1;stroke:none;stroke-width:1.16399777;stroke-miterlimit:4;stroke-dasharray:none;stroke-opacity:1"
       inkscape:export-xdpi="300"
       inkscape:export-ydpi="300" />
    <path
       style="opacity:1;fill:#ffcc00;fill-opacity:1;stroke:none;stroke-width:1.99855387;stroke-miterlimit:4;stroke-dasharray:none;stroke-opacity:1"
       d="M 139.43759,8.1424617 H 657.16988 V 142.4024 H 139.43759 Z"
       id="rect2053"
       inkscape:connector-curvature="0"
       sodipodi:nodetypes="ccccc" />
  </g>
</svg>
